<?xml version="1.0" encoding="UTF-8" standalone="no"?><!DOCTYPE svg PUBLIC "-//W3C//DTD SVG 1.1//EN" "http://www.w3.org/Graphics/SVG/1.1/DTD/svg11.dtd"><svg width="600" height="100%" viewBox="0 0 273 52" version="1.1" xmlns="http://www.w3.org/2000/svg" xmlns:xlink="http://www.w3.org/1999/xlink" xml:space="preserve" xmlns:serif="http://www.serif.com/" style="fill-rule:evenodd;clip-rule:evenodd;stroke-linejoin:round;stroke-miterlimit:2;"><g><path d="M46.602,45.9c-0.702,-1.512 -1.566,-3.726 -2.592,-6.588l-11.718,-32.508c-1.08,-2.862 -1.458,-4.266 -1.836,-5.832l-14.094,0c-0.27,1.566 -0.756,3.186 -1.728,5.832l-11.664,32.508c-1.296,3.672 -1.782,4.968 -2.592,6.588l12.636,0c0.27,-1.998 0.648,-3.672 1.35,-5.832l1.458,-4.59l15.39,0l1.458,4.59c0.54,1.836 0.864,3.24 1.296,5.832l12.636,0Zm-18.036,-19.494l-10.152,0l5.022,-16.2l5.13,16.2Z" style="fill:#333;fill-rule:nonzero;"/><path d="M61.506,28.566l10.152,0c4.104,0 6.264,0.108 8.64,0.378l0,-9.99c-2.376,0.27 -4.428,0.378 -8.64,0.378l-10.152,0l0,-8.856l12.42,0c4.536,0 6.642,0.108 9.018,0.378l0,-10.26c-2.538,0.324 -4.32,0.378 -9.072,0.378l-15.606,0c-4.158,0 -5.67,-0.054 -7.884,-0.162c0.324,2.538 0.432,4.32 0.432,7.884l0,27.972c0,4.698 -0.108,6.858 -0.486,9.234l11.61,0c-0.378,-2.376 -0.432,-4.32 -0.432,-9.396l0,-7.938Z" style="fill:#333;fill-rule:nonzero;"/><path d="M87.156,0.972l0,8.1l10.962,0l0,-8.1l-10.962,0Zm-0.162,11.988c0.324,2.43 0.432,4.644 0.432,8.154l0,16.632c0,3.456 -0.108,5.508 -0.432,8.154l11.286,0c-0.27,-2.322 -0.432,-5.238 -0.432,-8.154l0,-16.632c0,-3.78 0.108,-5.94 0.432,-8.154l-11.286,0Z" style="fill:#ff4040;fill-rule:nonzero;"/><g><path d="M144.45,14.472c-0.702,-3.186 -1.62,-5.184 -3.348,-7.398c-3.51,-4.698 -8.964,-7.074 -15.93,-7.074c-6.318,0 -11.772,1.998 -15.498,5.616c-4.266,4.212 -6.534,10.422 -6.534,17.766c0,7.236 2.268,13.554 6.264,17.604c3.834,3.888 9.396,5.94 15.984,5.94c6.534,0 11.772,-2.052 15.12,-5.886c2.268,-2.646 3.456,-5.292 4.482,-9.882l-11.232,-1.674c-0.324,2.268 -0.702,3.348 -1.62,4.644c-1.566,2.16 -4.104,3.402 -7.074,3.402c-6.696,0 -10.692,-5.346 -10.692,-14.148c0,-8.91 3.834,-14.094 10.422,-14.094c4.644,0 7.506,2.43 8.532,7.344l11.124,-2.16Z" style="fill:#333;fill-rule:nonzero;"/><path d="M193.374,45.9c-0.702,-1.512 -1.566,-3.726 -2.592,-6.588l-11.718,-32.508c-1.08,-2.862 -1.458,-4.266 -1.836,-5.832l-14.094,0c-0.27,1.566 -0.756,3.186 -1.728,5.832l-11.664,32.508c-1.296,3.672 -1.782,4.968 -2.592,6.588l12.636,0c0.27,-1.998 0.648,-3.672 1.35,-5.832l1.458,-4.59l15.39,0l1.458,4.59c0.54,1.836 0.864,3.24 1.296,5.832l12.636,0Zm-18.036,-19.494l-10.152,0l5.022,-16.2l5.13,16.2Z" style="fill:#333;fill-rule:nonzero;"/><path d="M215.838,10.53l6.102,0c3.888,0 5.994,0.108 8.424,0.378l0,-10.314c-2.484,0.27 -4.644,0.378 -8.424,0.378l-23.652,0c-3.294,0 -6.264,-0.162 -8.046,-0.378l0,10.314c3.834,-0.324 4.752,-0.378 8.154,-0.378l6.372,0l0,27.216c0,3.402 -0.108,5.616 -0.432,8.154l11.934,0c-0.324,-2.538 -0.432,-4.914 -0.432,-8.154l0,-27.216Z" style="fill:#333;fill-rule:nonzero;"/></g><path d="M244.998,47.142c10.746,0 17.874,-7.128 17.874,-17.874c0,-10.692 -6.912,-17.55 -17.82,-17.55c-10.908,0 -17.82,6.858 -17.82,17.658c0,10.854 6.912,17.766 17.766,17.766Zm0.108,-27.324c4.59,0 7.344,3.564 7.344,9.612c0,5.994 -2.7,9.504 -7.398,9.504c-4.698,0 -7.506,-3.618 -7.506,-9.612c0,-5.94 2.808,-9.504 7.56,-9.504Z" style="fill:#ff4040;fill-rule:nonzero;"/></g></svg>